<mxfile host="app.diagrams.net" modified="2021-08-17T02:53:26.763Z" agent="5.0 (Windows NT 10.0; Win64; x64) AppleWebKit/537.36 (KHTML, like Gecko) Chrome/92.0.4515.131 Safari/537.36 Edg/92.0.902.73" etag="ZjAKdOvLS57nN_jn6Z6D" version="14.9.7" type="github">
  <diagram id="3zKHm57p_Z_YJrvrNBpT" name="第 1 页">
    <mxGraphModel dx="942" dy="674" grid="0" gridSize="10" guides="1" tooltips="1" connect="1" arrows="1" fold="1" page="0" pageScale="1" pageWidth="827" pageHeight="1169" math="0" shadow="0">
      <root>
        <mxCell id="0" />
        <mxCell id="1" parent="0" />
        <mxCell id="gESEH1pFKhmZ6BMuTfbv-1" value="" style="rounded=1;whiteSpace=wrap;html=1;" parent="1" vertex="1">
          <mxGeometry x="60" y="60" width="220" height="280" as="geometry" />
        </mxCell>
        <mxCell id="gESEH1pFKhmZ6BMuTfbv-2" value="instruction 1" style="rounded=0;whiteSpace=wrap;html=1;" parent="1" vertex="1">
          <mxGeometry x="95" y="80" width="150" height="30" as="geometry" />
        </mxCell>
        <mxCell id="gESEH1pFKhmZ6BMuTfbv-3" value="instruction 2" style="rounded=0;whiteSpace=wrap;html=1;" parent="1" vertex="1">
          <mxGeometry x="95" y="120" width="150" height="30" as="geometry" />
        </mxCell>
        <mxCell id="gESEH1pFKhmZ6BMuTfbv-4" value="instruction 3" style="rounded=0;whiteSpace=wrap;html=1;" parent="1" vertex="1">
          <mxGeometry x="95" y="160" width="150" height="30" as="geometry" />
        </mxCell>
        <mxCell id="gESEH1pFKhmZ6BMuTfbv-5" value="instruction n" style="rounded=0;whiteSpace=wrap;html=1;" parent="1" vertex="1">
          <mxGeometry x="95" y="290" width="150" height="30" as="geometry" />
        </mxCell>
        <mxCell id="gESEH1pFKhmZ6BMuTfbv-6" value="..." style="text;html=1;strokeColor=none;fillColor=none;align=center;verticalAlign=middle;whiteSpace=wrap;rounded=0;" parent="1" vertex="1">
          <mxGeometry x="150" y="230" width="40" height="20" as="geometry" />
        </mxCell>
        <mxCell id="gESEH1pFKhmZ6BMuTfbv-7" value="computer / computerized device" style="rounded=1;whiteSpace=wrap;html=1;" parent="1" vertex="1">
          <mxGeometry x="460" y="170" width="120" height="60" as="geometry" />
        </mxCell>
        <mxCell id="gESEH1pFKhmZ6BMuTfbv-8" value="tell it what to do" style="shape=flexArrow;endArrow=classic;html=1;exitX=1;exitY=0.5;exitDx=0;exitDy=0;exitPerimeter=0;entryX=0;entryY=0.5;entryDx=0;entryDy=0;entryPerimeter=0;fillColor=#dae8fc;strokeColor=#6c8ebf;" parent="1" source="gESEH1pFKhmZ6BMuTfbv-1" target="gESEH1pFKhmZ6BMuTfbv-7" edge="1">
          <mxGeometry width="50" height="50" relative="1" as="geometry">
            <mxPoint x="330" y="230" as="sourcePoint" />
            <mxPoint x="380" y="180" as="targetPoint" />
          </mxGeometry>
        </mxCell>
        <mxCell id="gESEH1pFKhmZ6BMuTfbv-9" value="software" style="text;html=1;strokeColor=none;fillColor=none;align=center;verticalAlign=middle;whiteSpace=wrap;rounded=0;" parent="1" vertex="1">
          <mxGeometry x="150" y="350" width="40" height="20" as="geometry" />
        </mxCell>
        <mxCell id="8du6GOPi5qrq0MDPiFM4-5" value="electronic&lt;br&gt;device" style="rounded=1;whiteSpace=wrap;html=1;align=center;spacingRight=63;" vertex="1" parent="1">
          <mxGeometry x="55" y="458" width="173" height="60" as="geometry" />
        </mxCell>
        <mxCell id="8du6GOPi5qrq0MDPiFM4-6" value="data" style="rounded=1;whiteSpace=wrap;html=1;" vertex="1" parent="1">
          <mxGeometry x="330" y="455" width="120" height="60" as="geometry" />
        </mxCell>
        <mxCell id="8du6GOPi5qrq0MDPiFM4-7" value="process" style="curved=1;endArrow=classic;html=1;exitX=0;exitY=0.717;exitDx=0;exitDy=0;exitPerimeter=0;fillColor=#e51400;strokeColor=#B20000;fontColor=#FF0000;" edge="1" parent="1" source="8du6GOPi5qrq0MDPiFM4-6">
          <mxGeometry width="50" height="50" relative="1" as="geometry">
            <mxPoint x="235" y="563" as="sourcePoint" />
            <mxPoint x="193" y="427" as="targetPoint" />
            <Array as="points">
              <mxPoint x="168" y="498" />
              <mxPoint x="147" y="498" />
              <mxPoint x="147" y="473" />
            </Array>
          </mxGeometry>
        </mxCell>
        <mxCell id="8du6GOPi5qrq0MDPiFM4-8" value="&lt;font&gt;store&lt;/font&gt;" style="endArrow=classic;html=1;exitX=0;exitY=0.333;exitDx=0;exitDy=0;exitPerimeter=0;fillColor=#60a917;strokeColor=#2D7600;fontColor=#66CC00;" edge="1" parent="1" source="8du6GOPi5qrq0MDPiFM4-6">
          <mxGeometry width="50" height="50" relative="1" as="geometry">
            <mxPoint x="270" y="446" as="sourcePoint" />
            <mxPoint x="199" y="475" as="targetPoint" />
            <Array as="points">
              <mxPoint x="272" y="475" />
            </Array>
          </mxGeometry>
        </mxCell>
        <mxCell id="8du6GOPi5qrq0MDPiFM4-9" value="computer" style="text;html=1;strokeColor=none;fillColor=none;align=center;verticalAlign=middle;whiteSpace=wrap;rounded=0;" vertex="1" parent="1">
          <mxGeometry x="121.5" y="526" width="40" height="20" as="geometry" />
        </mxCell>
        <mxCell id="8du6GOPi5qrq0MDPiFM4-10" style="edgeStyle=orthogonalEdgeStyle;rounded=0;orthogonalLoop=1;jettySize=auto;html=1;exitX=0.5;exitY=1;exitDx=0;exitDy=0;fontColor=#66CC00;" edge="1" parent="1" source="8du6GOPi5qrq0MDPiFM4-9" target="8du6GOPi5qrq0MDPiFM4-9">
          <mxGeometry relative="1" as="geometry" />
        </mxCell>
      </root>
    </mxGraphModel>
  </diagram>
</mxfile>
